<?xml version="1.0" encoding="UTF-8"?>
<svg xmlns="http://www.w3.org/2000/svg" xmlns:xlink="http://www.w3.org/1999/xlink" viewBox="0 0 20 20" width="20px" height="20px">
<g id="surface111205297">
<path style=" stroke:none;fill-rule:nonzero;fill:rgb(100%,100%,100%);fill-opacity:1;" d="M 9.6875 1.878906 C 9.667969 1.878906 9.648438 1.882812 9.628906 1.886719 C 9.609375 1.890625 9.589844 1.894531 9.570312 1.902344 C 9.550781 1.910156 9.535156 1.921875 9.515625 1.929688 C 9.507812 1.9375 9.496094 1.941406 9.488281 1.945312 L 5.625 5.144531 L 5.625 4.082031 C 5.625 3.90625 5.484375 3.769531 5.3125 3.769531 C 5.140625 3.769531 5 3.90625 5 4.082031 L 5 5.644531 C 5 5.648438 5.003906 5.652344 5.003906 5.660156 L 4.375 6.179688 L 4.375 2.828125 C 4.375 2.65625 4.234375 2.515625 4.0625 2.515625 C 3.890625 2.515625 3.75 2.65625 3.75 2.828125 L 3.75 6.582031 C 3.75 6.613281 3.761719 6.648438 3.769531 6.679688 L 0.425781 9.445312 C 0.292969 9.558594 0.273438 9.753906 0.382812 9.886719 C 0.445312 9.960938 0.535156 10 0.625 10 C 0.695312 10 0.765625 9.976562 0.824219 9.929688 L 1.875 9.058594 L 1.875 16.875 L 0.9375 16.875 C 0.765625 16.875 0.625 17.015625 0.625 17.1875 C 0.625 17.359375 0.765625 17.5 0.9375 17.5 L 18.4375 17.5 C 18.609375 17.5 18.75 17.359375 18.75 17.1875 C 18.75 17.015625 18.609375 16.875 18.4375 16.875 L 17.5 16.875 L 17.5 9.058594 L 18.550781 9.929688 C 18.609375 9.976562 18.679688 10 18.75 10 C 18.839844 10 18.929688 9.960938 18.992188 9.886719 C 19.101562 9.753906 19.082031 9.558594 18.949219 9.445312 L 9.886719 1.945312 C 9.878906 1.941406 9.867188 1.9375 9.855469 1.929688 C 9.839844 1.917969 9.820312 1.910156 9.800781 1.902344 C 9.78125 1.894531 9.765625 1.890625 9.746094 1.886719 C 9.726562 1.882812 9.707031 1.878906 9.6875 1.878906 Z M 9.6875 2.59375 L 16.875 8.542969 L 16.875 13.75 L 11.875 13.75 L 11.875 11.25 C 11.875 10.90625 11.59375 10.625 11.25 10.625 L 8.125 10.625 C 7.78125 10.625 7.5 10.90625 7.5 11.25 L 7.5 13.75 L 2.5 13.75 L 2.5 8.542969 Z M 9.6875 5.625 C 8.824219 5.625 8.125 6.324219 8.125 7.1875 C 8.125 8.050781 8.824219 8.75 9.6875 8.75 C 10.550781 8.75 11.25 8.050781 11.25 7.1875 C 11.25 6.324219 10.550781 5.625 9.6875 5.625 Z M 9.6875 6.183594 C 10.242188 6.183594 10.691406 6.632812 10.691406 7.1875 C 10.691406 7.742188 10.242188 8.191406 9.6875 8.191406 C 9.132812 8.191406 8.683594 7.742188 8.683594 7.1875 C 8.683594 6.632812 9.132812 6.183594 9.6875 6.183594 Z M 8.125 11.25 L 11.25 11.25 L 11.25 16.859375 L 8.125 16.859375 Z M 10.3125 13.4375 C 10.140625 13.4375 10 13.578125 10 13.75 L 10 14.375 C 10 14.546875 10.140625 14.6875 10.3125 14.6875 C 10.484375 14.6875 10.625 14.546875 10.625 14.375 L 10.625 13.75 C 10.625 13.578125 10.484375 13.4375 10.3125 13.4375 Z M 2.5 14.375 L 7.5 14.375 L 7.5 16.875 L 2.5 16.875 Z M 11.875 14.375 L 16.875 14.375 L 16.875 16.875 L 11.875 16.875 Z M 3.4375 15 C 3.265625 15 3.125 15.140625 3.125 15.3125 L 3.125 15.9375 C 3.125 16.109375 3.265625 16.25 3.4375 16.25 C 3.609375 16.25 3.75 16.109375 3.75 15.9375 L 3.75 15.3125 C 3.75 15.140625 3.609375 15 3.4375 15 Z M 5 15 C 4.828125 15 4.6875 15.140625 4.6875 15.3125 L 4.6875 15.9375 C 4.6875 16.109375 4.828125 16.25 5 16.25 C 5.171875 16.25 5.3125 16.109375 5.3125 15.9375 L 5.3125 15.3125 C 5.3125 15.140625 5.171875 15 5 15 Z M 6.5625 15 C 6.390625 15 6.25 15.140625 6.25 15.3125 L 6.25 15.9375 C 6.25 16.109375 6.390625 16.25 6.5625 16.25 C 6.734375 16.25 6.875 16.109375 6.875 15.9375 L 6.875 15.3125 C 6.875 15.140625 6.734375 15 6.5625 15 Z M 12.8125 15 C 12.640625 15 12.5 15.140625 12.5 15.3125 L 12.5 15.9375 C 12.5 16.109375 12.640625 16.25 12.8125 16.25 C 12.984375 16.25 13.125 16.109375 13.125 15.9375 L 13.125 15.3125 C 13.125 15.140625 12.984375 15 12.8125 15 Z M 14.375 15 C 14.203125 15 14.0625 15.140625 14.0625 15.3125 L 14.0625 15.9375 C 14.0625 16.109375 14.203125 16.25 14.375 16.25 C 14.546875 16.25 14.6875 16.109375 14.6875 15.9375 L 14.6875 15.3125 C 14.6875 15.140625 14.546875 15 14.375 15 Z M 15.9375 15 C 15.765625 15 15.625 15.140625 15.625 15.3125 L 15.625 15.9375 C 15.625 16.109375 15.765625 16.25 15.9375 16.25 C 16.109375 16.25 16.25 16.109375 16.25 15.9375 L 16.25 15.3125 C 16.25 15.140625 16.109375 15 15.9375 15 Z M 15.9375 15 "/>
</g>
</svg>
