<?xml version="1.0" encoding="UTF-8"?>
<svg xmlns="http://www.w3.org/2000/svg" xmlns:xlink="http://www.w3.org/1999/xlink" viewBox="0 0 20 20" width="20px" height="20px">
<g id="surface110896799">
<path style=" stroke:none;fill-rule:nonzero;fill:rgb(100%,100%,100%);fill-opacity:1;" d="M 7.5625 2.800781 C 7.5625 2.800781 5.015625 2.976562 3.351562 4.3125 C 3.34375 4.316406 3.332031 4.320312 3.324219 4.324219 C 3.035156 4.59375 2.820312 5.007812 2.550781 5.601562 C 2.28125 6.195312 1.996094 6.957031 1.738281 7.8125 C 1.21875 9.523438 0.800781 11.625 0.800781 13.601562 C 0.796875 13.671875 0.816406 13.738281 0.851562 13.800781 C 1.433594 14.828125 2.507812 15.445312 3.511719 15.835938 C 4.515625 16.226562 5.441406 16.382812 5.914062 16.398438 C 6.046875 16.40625 6.171875 16.34375 6.25 16.238281 L 7.226562 14.886719 C 8.011719 15.074219 8.933594 15.199219 10 15.199219 C 11.066406 15.199219 11.988281 15.074219 12.773438 14.886719 L 13.75 16.238281 C 13.828125 16.34375 13.953125 16.40625 14.085938 16.398438 C 14.558594 16.382812 15.484375 16.226562 16.488281 15.835938 C 17.492188 15.445312 18.566406 14.828125 19.148438 13.800781 C 19.183594 13.738281 19.203125 13.671875 19.199219 13.601562 C 19.199219 11.625 18.78125 9.523438 18.261719 7.8125 C 18.003906 6.957031 17.71875 6.195312 17.449219 5.601562 C 17.179688 5.007812 16.964844 4.59375 16.675781 4.324219 C 16.667969 4.320312 16.65625 4.316406 16.648438 4.3125 C 14.984375 2.976562 12.4375 2.800781 12.4375 2.800781 C 12.40625 2.796875 12.378906 2.796875 12.351562 2.800781 C 12.210938 2.820312 12.09375 2.910156 12.039062 3.039062 C 12.039062 3.039062 11.902344 3.335938 11.8125 3.761719 C 11.03125 3.636719 10.375 3.601562 10 3.601562 C 9.625 3.601562 8.96875 3.636719 8.1875 3.761719 C 8.097656 3.335938 7.960938 3.039062 7.960938 3.039062 C 7.894531 2.882812 7.734375 2.785156 7.5625 2.800781 Z M 7.3125 3.664062 C 7.34375 3.742188 7.363281 3.820312 7.386719 3.914062 C 6.484375 4.121094 5.5 4.464844 4.574219 5.039062 C 4.429688 5.097656 4.335938 5.238281 4.328125 5.398438 C 4.328125 5.554688 4.414062 5.699219 4.554688 5.765625 C 4.699219 5.835938 4.867188 5.8125 4.988281 5.710938 C 6.839844 4.5625 9.199219 4.398438 10 4.398438 C 10.800781 4.398438 13.160156 4.5625 15.011719 5.710938 C 15.132812 5.8125 15.300781 5.835938 15.445312 5.765625 C 15.585938 5.699219 15.671875 5.554688 15.671875 5.398438 C 15.664062 5.238281 15.570312 5.097656 15.425781 5.039062 C 14.5 4.464844 13.515625 4.121094 12.613281 3.914062 C 12.636719 3.820312 12.65625 3.742188 12.6875 3.664062 C 13.144531 3.71875 14.917969 3.957031 16.125 4.914062 C 16.203125 4.984375 16.476562 5.382812 16.726562 5.9375 C 16.976562 6.492188 17.238281 7.210938 17.488281 8.039062 C 17.976562 9.648438 18.367188 11.640625 18.386719 13.460938 C 17.933594 14.199219 17.078125 14.746094 16.199219 15.085938 C 15.398438 15.398438 14.652344 15.539062 14.261719 15.574219 L 13.585938 14.664062 C 13.929688 14.550781 14.242188 14.429688 14.511719 14.3125 C 15.523438 13.867188 16.0625 13.398438 16.0625 13.398438 C 16.226562 13.25 16.242188 12.996094 16.09375 12.832031 C 15.945312 12.664062 15.691406 12.652344 15.523438 12.800781 C 15.523438 12.800781 15.105469 13.183594 14.1875 13.585938 C 13.851562 13.734375 13.441406 13.882812 12.976562 14.011719 C 12.867188 14 12.757812 14.03125 12.675781 14.101562 C 11.929688 14.28125 11.042969 14.398438 10 14.398438 C 8.949219 14.398438 8.0625 14.269531 7.3125 14.085938 C 7.226562 14.03125 7.125 14.007812 7.023438 14.023438 C 6.558594 13.894531 6.152344 13.734375 5.8125 13.585938 C 4.894531 13.183594 4.476562 12.800781 4.476562 12.800781 C 4.382812 12.714844 4.257812 12.679688 4.136719 12.699219 C 3.984375 12.722656 3.855469 12.835938 3.8125 12.984375 C 3.769531 13.136719 3.820312 13.296875 3.9375 13.398438 C 3.9375 13.398438 4.476562 13.867188 5.488281 14.3125 C 5.757812 14.429688 6.070312 14.550781 6.414062 14.664062 L 5.738281 15.574219 C 5.347656 15.539062 4.601562 15.398438 3.800781 15.085938 C 2.921875 14.746094 2.066406 14.199219 1.613281 13.460938 C 1.632812 11.640625 2.023438 9.648438 2.511719 8.039062 C 2.761719 7.210938 3.023438 6.492188 3.273438 5.9375 C 3.523438 5.382812 3.796875 4.984375 3.875 4.914062 C 5.082031 3.957031 6.855469 3.71875 7.3125 3.664062 Z M 7.398438 8.398438 C 6.378906 8.398438 5.601562 9.328125 5.601562 10.398438 C 5.601562 11.472656 6.378906 12.398438 7.398438 12.398438 C 8.421875 12.398438 9.199219 11.472656 9.199219 10.398438 C 9.199219 9.328125 8.421875 8.398438 7.398438 8.398438 Z M 12.601562 8.398438 C 11.578125 8.398438 10.800781 9.328125 10.800781 10.398438 C 10.800781 11.472656 11.578125 12.398438 12.601562 12.398438 C 13.621094 12.398438 14.398438 11.472656 14.398438 10.398438 C 14.398438 9.328125 13.621094 8.398438 12.601562 8.398438 Z M 7.398438 9.199219 C 7.925781 9.199219 8.398438 9.707031 8.398438 10.398438 C 8.398438 11.09375 7.925781 11.601562 7.398438 11.601562 C 6.875 11.601562 6.398438 11.09375 6.398438 10.398438 C 6.398438 9.707031 6.875 9.199219 7.398438 9.199219 Z M 12.601562 9.199219 C 13.125 9.199219 13.601562 9.707031 13.601562 10.398438 C 13.601562 11.09375 13.125 11.601562 12.601562 11.601562 C 12.074219 11.601562 11.601562 11.09375 11.601562 10.398438 C 11.601562 9.707031 12.074219 9.199219 12.601562 9.199219 Z M 12.601562 9.199219 "/>
</g>
</svg>
